<svg viewBox="0 0 36 42" xmlns="http://www.w3.org/2000/svg" xmlns:xlink="http://www.w3.org/1999/xlink" width="36.000000" height="42.000000" fill="none" customFrame="#000000">
	<defs>
		<filter id="pixso_custom_mask_type_outline">
			<feColorMatrix type="matrix" values="0 0 0 0 1 0 0 0 0 1 0 0 0 0 1 0 0 0 1 0 " />
		</filter>
	</defs>
	<mask id="mask_0" width="36.000000" height="42.000000" x="0.000000" y="0.000000" maskUnits="userSpaceOnUse">
		<g filter="url(#pixso_custom_mask_type_outline)">
			<path id="Clip 2" d="M0 0L36 0L36 42L0 42L0 0Z" fill="rgb(255,255,255)" fill-rule="evenodd" />
		</g>
	</mask>
	<g id="Group 3" showMaskRef="url(#show_mask_0)" mask="url(#mask_0)">
		<path id="show_mask_0" d="M0 0L36 0L36 42L0 42L0 0Z" fill="rgb(196,196,196)" fill-opacity="0.00392156886" fill-rule="evenodd" />
		<path id="Fill 1" d="M35.9891 16.7253C35.9892 16.0127 35.9893 15.3001 35.9893 14.5875C35.9893 13.9653 35.9887 13.3432 35.9881 12.721C35.9863 10.7996 35.9845 8.87823 35.9999 6.95684C36.0028 6.57436 35.8786 6.42935 35.5298 6.30329C29.8059 4.23439 24.0873 2.15142 18.3709 0.0627068C18.0816 -0.0432508 17.841 -0.00333724 17.5675 0.0963031C11.8618 2.17611 6.15459 4.25219 0.443402 6.31621C0.115817 6.43452 -0.00142371 6.57981 1.30621e-05 6.93846C0.00785003 9.17696 0.00799252 11.4155 0.00813501 13.654C0.00825375 15.5195 0.00837249 17.385 0.0129441 19.2505C0.0135504 19.5136 0.0123911 19.7767 0.0112318 20.0397C0.0068971 21.0234 0.00256214 22.0071 0.09053 22.9917C0.430184 26.8048 1.73909 30.2391 4.13017 33.2266C7.61981 37.5866 12.2149 40.2795 17.489 41.9185C17.831 42.0248 18.1477 42.0274 18.4922 41.9248C22.1683 40.8308 25.5189 39.1102 28.4795 36.672C33.4054 32.6161 35.9927 27.4242 35.9893 21.001C35.9887 19.5757 35.9889 18.1505 35.9891 16.7253ZM28.0031 16.0623C27.9304 15.9848 27.8585 15.9038 27.7821 15.8274C27.2749 15.3194 26.7462 14.8313 26.2675 14.2981C25.9945 13.9937 25.8528 14.0494 25.5902 14.3133C22.1787 17.741 18.7505 21.1526 15.3402 24.5817C15.0597 24.8637 14.9235 24.8476 14.6551 24.5736C13.2465 23.1368 11.8054 21.7315 10.3997 20.2914C10.1164 20.0011 9.97555 20.0281 9.72297 20.3052C9.2609 20.8117 8.77211 21.2961 8.26751 21.7607C8.00545 22.0019 7.9951 22.1395 8.26119 22.4025C10.4034 24.5182 12.5359 26.6437 14.6485 28.789C14.958 29.1031 15.0982 29.0408 15.3686 28.7686C17.8968 26.2227 20.439 23.6904 22.9772 21.1543C24.5663 19.5664 26.1562 17.9793 27.743 16.3891C27.837 16.2946 27.9669 16.2234 28.0031 16.0623Z" fill="rgb(211,34,41)" fill-rule="evenodd" />
	</g>
</svg>
