<svg viewBox="0 0 53.71 53.7737" xmlns="http://www.w3.org/2000/svg" xmlns:xlink="http://www.w3.org/1999/xlink" width="53.709961" height="53.773682" fill="none" customFrame="#000000">
	<defs>
		<filter id="pixso_custom_mask_type_outline">
			<feColorMatrix type="matrix" values="0 0 0 0 1 0 0 0 0 1 0 0 0 0 1 0 0 0 1 0 " />
		</filter>
	</defs>
	<mask id="mask_2" width="36.925308" height="37.004601" x="16.784668" y="0.000000" maskUnits="userSpaceOnUse">
		<g filter="url(#pixso_custom_mask_type_outline)">
			<path id="Clip 4" d="M16.7847 0L53.71 0L53.71 37.0046L16.7847 37.0046L16.7847 0Z" fill="rgb(255,255,255)" fill-rule="evenodd" />
		</g>
	</mask>
	<g id="Group 8">
		<path id="Fill 1" d="M0 28.979C0.136603 28.1027 0.24872 27.2216 0.413996 26.3507C1.31931 21.5857 3.53105 17.5144 6.99606 14.1328C10.5741 10.6411 14.8623 8.54887 19.7984 7.80045C22.5401 7.38452 25.2721 7.50824 27.9874 8.07333C28.298 8.13777 28.3702 8.27437 28.3666 8.56788C28.3518 9.7406 28.3464 10.914 28.3683 12.0864C28.3757 12.481 28.2584 12.49 27.9169 12.406C22.888 11.1665 18.076 11.7265 13.6045 14.3732C8.60049 17.3353 5.52371 21.7169 4.50531 27.4593C2.91634 36.4194 7.99319 45.1993 16.5544 48.3982C26.4181 52.0836 37.5841 46.7847 40.9641 36.8102C42.1864 33.2031 42.3124 29.5486 41.3665 25.8639C41.2585 25.4438 41.3671 25.4009 41.7321 25.4061C42.8875 25.4228 44.0431 25.4241 45.1984 25.4045C45.5045 25.399 45.633 25.4969 45.6897 25.7898C47.1927 33.5381 45.3714 40.4057 40.0993 46.2767C36.4787 50.3087 31.8954 52.6651 26.5473 53.5334C25.9651 53.6278 25.3662 53.6013 24.7947 53.7737L21.4328 53.7737C20.8603 53.6055 20.262 53.6316 19.6795 53.5379C15.6893 52.8958 12.0671 51.3919 8.89174 48.8766C4.35937 45.2866 1.50843 40.6582 0.41013 34.9709C0.241954 34.1003 0.135314 33.2179 0 32.3409C0 31.2204 0 30.0996 0 28.979Z" fill="rgb(211,34,41)" fill-rule="evenodd" />
		<g id="Group 5" showMaskRef="url(#show_mask_2)" mask="url(#mask_2)">
			<path id="show_mask_2" d="M16.7847 0L53.71 0L53.71 37.0046L16.7847 37.0046L16.7847 0Z" fill="rgb(196,196,196)" fill-opacity="0.00392156886" fill-rule="evenodd" />
			<path id="Fill 3" d="M43.0695 3.60096C42.862 2.42148 42.6516 1.24231 42.4313 0C42.3056 0.103741 42.236 0.152389 42.1768 0.211348C39.0449 3.3429 35.9159 6.47767 32.7776 9.60246C32.5772 9.80221 32.5492 10.0103 32.5495 10.261C32.5507 11.1061 32.5505 11.9511 32.5502 12.7962C32.5498 14.4196 32.5494 16.043 32.5591 17.6662C32.5614 18.0602 32.4609 18.3457 32.1722 18.6305C30.166 20.6106 28.1737 22.6042 26.1936 24.6101C25.9233 24.8839 25.7245 24.9377 25.3501 24.7947C20.9086 23.0936 16.1874 26.777 16.8466 31.4653C17.212 34.0643 18.7017 35.8708 21.2124 36.6685C23.6371 37.4388 25.8453 36.8798 27.6108 35.045C29.4356 33.149 29.8677 30.8832 28.9707 28.4005C28.8432 28.0477 28.8889 27.855 29.145 27.6015C31.1606 25.6062 33.1652 23.6001 35.162 21.5861C35.4136 21.3323 35.6627 21.214 36.028 21.2163C38.4962 21.2321 40.9647 21.2176 43.4332 21.2321C43.795 21.2343 44.0467 21.1264 44.3018 20.8699C47.3258 17.8286 50.362 14.7992 53.392 11.7639C53.5109 11.6451 53.6788 11.5574 53.71 11.3451C53.5547 11.3087 53.4036 11.2652 53.2496 11.2382C50.3777 10.7356 47.5059 10.2323 44.6327 9.73649C44.297 9.6785 44.1001 9.56284 44.0373 9.1759C43.7338 7.31469 43.3965 5.45863 43.0695 3.60096ZM45.0796 14.0933C43.632 13.832 42.2647 13.5691 40.8906 13.3491C40.561 13.2965 40.4718 13.1712 40.4209 12.8645C40.1947 11.4972 39.9373 10.135 39.6757 8.68523C38.7011 9.65884 37.7903 10.5719 36.875 11.4804C36.7527 11.6019 36.7579 11.7436 36.7631 11.8848L36.7631 11.8849C36.7641 11.914 36.7652 11.9431 36.7652 11.9721C36.7643 12.4639 36.7649 12.9556 36.7655 13.4474C36.7667 14.4779 36.7679 15.5083 36.7561 16.5386C36.7523 16.8872 36.8212 17.0248 37.2081 17.019C38.2494 17.0037 39.2908 17.0054 40.3323 17.0071C40.8305 17.0079 41.3287 17.0087 41.8269 17.0077C41.8565 17.0076 41.8865 17.0092 41.9166 17.0107C42.0408 17.0172 42.1666 17.0237 42.2724 16.9172C43.1916 15.9903 44.1127 15.0656 45.0796 14.0933ZM25.1974 30.6412C25.2229 31.7721 24.2605 32.7553 23.1187 32.7647C21.9666 32.7743 21.0123 31.831 21.0088 30.6799C21.0056 29.5339 21.9653 28.5706 23.1058 28.5757C24.2248 28.5806 25.172 29.5162 25.1974 30.6412Z" fill="rgb(211,34,41)" fill-rule="evenodd" />
		</g>
		<path id="Fill 6" d="M36.9384 25.8041C38.991 31.1168 37.5547 38.5865 31.3631 42.8308C25.418 46.906 17.3494 46.0126 12.4047 40.7582C7.44317 35.4862 7.03852 27.3657 11.444 21.7099C15.9989 15.8621 23.2868 14.9564 28.0122 16.8692C26.9116 17.9691 25.8256 19.0568 24.7366 20.1412C24.4982 20.3787 24.2021 20.2472 23.9373 20.2266C21.2172 20.0162 18.7445 20.7131 16.6432 22.4348C13.1985 25.2571 11.8654 28.9353 12.9633 33.2483C14.0365 37.4627 16.8665 40.1058 21.1521 40.9515C27.0788 42.1214 32.6976 38.0284 33.4998 32.0701C33.6071 31.2727 33.6458 30.4654 33.5259 29.6622C33.4757 29.3265 33.5691 29.079 33.8249 28.8326C34.7447 27.9463 35.6362 27.03 36.5418 26.1289C36.6623 26.009 36.7548 25.8492 36.9384 25.8041Z" fill="rgb(211,34,41)" fill-rule="evenodd" />
	</g>
</svg>
