<svg viewBox="0 0 45.2887 50.3057" xmlns="http://www.w3.org/2000/svg" xmlns:xlink="http://www.w3.org/1999/xlink" width="45.288696" height="50.305664" fill="none" customFrame="#000000">
	<defs>
		<filter id="pixso_custom_mask_type_outline">
			<feColorMatrix type="matrix" values="0 0 0 0 1 0 0 0 0 1 0 0 0 0 1 0 0 0 1 0 " />
		</filter>
	</defs>
	<mask id="mask_1" width="36.553921" height="39.202808" x="8.734741" y="11.102905" maskUnits="userSpaceOnUse">
		<g filter="url(#pixso_custom_mask_type_outline)">
			<path id="Clip 4" d="M8.73474 11.1029L45.2887 11.1029L45.2887 50.3057L8.73474 50.3057L8.73474 11.1029Z" fill="rgb(255,255,255)" fill-rule="evenodd" />
		</g>
	</mask>
	<g id="Group 8">
		<path id="Fill 1" d="M34.8337 0C34.9283 1.20666 35.1854 2.38899 35.3731 3.58174C35.7615 6.05105 36.1654 8.51842 36.5778 10.9842C36.6496 11.4128 36.3388 11.3433 36.1307 11.3684C34.9294 11.5144 33.7259 11.6418 32.5231 11.7762C30.1989 12.0357 27.8748 12.2959 25.5503 12.5546C25.47 12.5639 25.3885 12.5639 25.2777 12.5701C25.2812 12.3596 25.4279 12.2461 25.5268 12.1156C26.3461 11.0317 27.1643 9.9471 27.9957 8.8725C28.1864 8.62576 28.2111 8.52382 27.8602 8.42304C21.9643 6.72793 16.5122 7.59595 11.64 11.3715C8.03352 14.1663 5.882 17.9076 5.18002 22.4048C4.46684 26.9712 5.43525 31.2117 8.02889 35.0598C8.45209 35.6873 8.45479 35.6858 7.91073 36.2283C6.99445 37.1415 6.06851 38.0458 5.16766 38.9744C4.91205 39.2382 4.80045 39.2019 4.58963 38.9246C2.23192 35.8244 0.809798 32.3342 0.252226 28.4918C-0.382958 24.1131 0.18002 19.8768 1.95854 15.8298C3.89575 11.4202 6.99638 8.01799 11.1515 5.59387C15.1499 3.26087 19.4834 2.29477 24.0931 2.57356C26.4407 2.71565 28.7201 3.2126 30.9021 4.1007C31.3288 4.27407 31.5724 4.24975 31.8612 3.84547C32.7918 2.54421 33.7733 1.27925 34.7352 0L34.8337 0Z" fill="rgb(211,34,41)" fill-rule="evenodd" />
		<g id="Group 5" showMaskRef="url(#show_mask_1)" mask="url(#mask_1)">
			<path id="show_mask_1" d="M8.73474 11.1029L45.2887 11.1029L45.2887 50.3057L8.73474 50.3057L8.73474 11.1029Z" fill="rgb(196,196,196)" fill-opacity="0.00392156886" fill-rule="evenodd" />
			<path id="Fill 3" d="M10.5227 50.3057C10.2319 48.5341 9.95659 46.8792 9.68939 45.2231C9.37971 43.3032 9.1044 41.3772 8.75418 39.4651C8.65958 38.9469 8.92485 38.9728 9.23337 38.938C10.9887 38.7411 12.7445 38.5457 14.4998 38.3496C16.2714 38.1519 18.0433 37.9542 19.8153 37.7576C19.8794 37.7507 19.945 37.7569 20.1141 37.7569C19.0662 39.1404 18.0588 40.471 17.0286 41.8309C19.2538 42.5321 21.4675 42.8314 23.7495 42.6831C27.0286 42.47 30.0346 41.473 32.7035 39.5605C36.6285 36.7479 39.1156 32.9797 39.9396 28.1967C40.7543 23.4662 39.7817 19.0975 37.0606 15.1381C36.7741 14.7207 36.7706 14.4987 37.151 14.1438C38.1449 13.2175 39.0967 12.2449 40.045 11.271C40.286 11.0235 40.3987 11.0591 40.5906 11.3135C42.8468 14.3022 44.3295 17.6233 44.9562 21.3236C45.5717 24.9555 45.3377 28.5314 44.216 32.0344C43.0785 35.5864 41.1822 38.6851 38.4962 41.288C35.6787 44.0191 32.3823 45.9266 28.5966 46.9491C25.5624 47.7685 22.4803 47.9708 19.3581 47.5005C17.5877 47.2341 15.8694 46.7946 14.2121 46.1251C13.916 46.0054 13.7669 46.0591 13.5766 46.3166C12.6807 47.5271 11.7583 48.7179 10.8443 49.915C10.7663 50.0169 10.6814 50.1134 10.5227 50.3057Z" fill="rgb(211,34,41)" fill-rule="evenodd" />
		</g>
		<path id="Fill 6" d="M32.741 22.6777C31.9679 22.6777 31.3343 22.7024 30.7037 22.6688C30.3006 22.6472 30.2184 22.7966 30.2199 23.1708C30.2338 26.1672 30.2203 29.1639 30.2365 32.1603C30.2388 32.5827 30.1651 32.7503 29.6878 32.7376C28.3294 32.7001 26.9695 32.7125 25.6107 32.7325C25.2597 32.7376 25.1763 32.6267 25.1767 32.2904C25.1774 31.4734 25.2485 30.6528 25.1269 29.8381C24.9431 28.6056 23.7283 27.641 22.4556 27.7117C21.2335 27.7793 20.2354 28.7894 20.1794 30.0555C20.145 30.8235 20.1539 31.5942 20.1632 32.3634C20.1666 32.636 20.0867 32.7325 19.8021 32.7302C18.3449 32.7175 16.8872 32.7086 15.4304 32.7341C15.0157 32.7414 15.084 32.504 15.084 32.2645C15.0836 29.2516 15.0728 26.2386 15.0956 23.2256C15.0991 22.7638 14.9639 22.6426 14.5253 22.6688C13.9268 22.7047 13.3248 22.6777 12.7151 22.6777C12.7217 22.4514 12.8877 22.4082 12.9935 22.329C16.0953 20.0007 19.2009 17.6773 22.3054 15.352C22.5046 15.2026 22.656 15.0721 22.9375 15.2849C26.1115 17.6808 29.2986 20.0594 32.4815 22.4437C32.5321 22.4816 32.5761 22.5283 32.741 22.6777Z" fill="rgb(211,34,41)" fill-rule="evenodd" />
	</g>
</svg>
