<svg viewBox="0 0 46.5706 46.5706" xmlns="http://www.w3.org/2000/svg" xmlns:xlink="http://www.w3.org/1999/xlink" width="46.570557" height="46.570557" fill="none" customFrame="#000000">
	<g id="Group 7">
		<path id="Fill 1" d="M41.8077 37.6978C41.8838 37.6322 41.9624 37.5645 41.9416 37.4395C41.8964 37.3322 41.8545 37.2275 41.8087 37.1245C41.3571 36.1079 40.9098 35.0892 40.449 34.0767C40.3467 33.8518 40.3348 33.6692 40.4693 33.4461C41.4487 31.8188 42.1629 30.0785 42.6302 28.2382C42.6873 28.0133 42.7911 27.8923 43.018 27.8084C44.0912 27.4122 45.1528 26.9854 46.2242 26.5838C46.4645 26.4937 46.5728 26.386 46.5704 26.1041C46.5552 24.2293 46.5567 22.3545 46.5692 20.4797C46.571 20.2112 46.4916 20.083 46.2373 19.9893C45.1941 19.6056 44.1626 19.1889 43.1186 18.8072C42.8336 18.7028 42.6748 18.5553 42.601 18.2537C42.1611 16.4551 41.4467 14.7662 40.502 13.1767C40.3527 12.9259 40.3387 12.7243 40.4601 12.4604C40.9315 11.4352 41.3756 10.3971 41.8446 9.37062C41.944 9.15319 41.955 9.01042 41.7673 8.82482C40.4214 7.49674 39.085 6.15885 37.7548 4.81531C37.579 4.63744 37.444 4.61394 37.2135 4.72072C36.1891 5.19395 35.1504 5.63684 34.1237 6.10531C33.8667 6.2225 33.6611 6.22964 33.4059 6.07676C31.8194 5.12673 30.1296 4.41347 28.3328 3.97147C28.0068 3.89116 27.8593 3.71894 27.7504 3.42239C27.3723 2.39384 26.9646 1.376 26.5826 0.348638C26.4937 0.108901 26.389 -0.00234217 26.1052 3.7354e-05C24.2305 0.0155043 22.3557 0.0137196 20.4812 0.00152456C20.2126 -0.000260087 20.0847 0.0785618 19.9911 0.333171C19.6014 1.39147 19.1823 2.43905 18.7894 3.49646C18.6972 3.74482 18.5743 3.89235 18.3019 3.95809C16.4863 4.3977 14.782 5.11543 13.1794 6.07111C12.9283 6.22102 12.7249 6.22994 12.4625 6.10888C11.4372 5.63744 10.4004 5.19217 9.37359 4.724C9.15676 4.62495 9.01191 4.61722 8.8269 4.8046C7.49882 6.15023 6.16093 7.48663 4.8165 8.81619C4.63744 8.99317 4.61394 9.13088 4.71864 9.35872C5.18324 10.3694 5.6184 11.3935 6.08449 12.4033C6.21834 12.6933 6.22935 12.9185 6.05534 13.2082C5.11305 14.7802 4.41168 16.4572 3.97266 18.2382C3.90008 18.5327 3.76177 18.6996 3.46879 18.806C2.42359 19.1862 1.39147 19.6014 0.349233 19.9893C0.110685 20.0782 -0.00234272 20.1802 3.68109e-05 20.4658C0.0158012 22.3402 0.014314 24.215 0.00122658 26.0898C-0.000558071 26.3602 0.0821305 26.4851 0.334658 26.5779C1.37838 26.9619 2.4105 27.3774 3.45481 27.7593C3.74125 27.864 3.89562 28.0181 3.96909 28.3179C4.40841 30.1165 5.12465 31.8042 6.06902 33.3937C6.21864 33.6454 6.23143 33.8467 6.11037 34.1097C5.64577 35.1204 5.21001 36.1442 4.74511 37.1546C4.62971 37.4053 4.6184 37.5657 4.83792 37.7813C6.16421 39.0829 7.47711 40.3985 8.78109 41.723C8.98603 41.9309 9.14219 41.9553 9.40453 41.8336C10.4134 41.3652 11.4381 40.9321 12.4488 40.4678C12.7269 40.3402 12.9411 40.3557 13.2091 40.5148C14.784 41.4508 16.458 42.1596 18.2406 42.5945C18.541 42.668 18.6987 42.8161 18.8043 43.104C19.1868 44.148 19.6005 45.1804 19.9884 46.2227C20.0776 46.4627 20.1829 46.5728 20.4664 46.5704C22.3408 46.5549 24.2156 46.5567 26.0904 46.5689C26.3596 46.5707 26.4866 46.4907 26.58 46.2364C26.9634 45.1926 27.3801 44.1608 27.7611 43.1162C27.8658 42.8283 28.0208 42.6796 28.3191 42.6052C30.1145 42.1575 31.8051 41.4485 33.394 40.5026C33.6433 40.3542 33.8465 40.3363 34.1112 40.458C35.1367 40.9291 36.1748 41.3729 37.2013 41.8423C37.419 41.9416 37.5597 41.9538 37.7459 41.7655C39.074 40.4199 40.416 39.0877 41.7512 37.7489C41.7688 37.7314 41.7882 37.7147 41.8077 37.6978ZM23.2778 35.2224C29.8643 35.2248 35.2147 29.8914 35.2218 23.3161C35.2293 16.6996 29.8973 11.3501 23.2923 11.348C16.7058 11.3456 11.3554 16.679 11.3489 23.2531C11.3424 29.8691 16.6752 35.22 23.2778 35.2224Z" fill="rgb(211,34,41)" fill-rule="evenodd" />
		<path id="Fill 3" d="M27.8294 20.5622C27.2491 20.5622 26.7334 20.5842 26.2206 20.5544C25.8726 20.5345 25.7929 20.655 25.7947 20.9887C25.8089 23.282 25.789 25.5755 25.8134 27.8685C25.8181 28.3209 25.6876 28.4319 25.2506 28.4223C23.9431 28.3941 22.6343 28.3962 21.3265 28.4214C20.9026 28.4298 20.7512 28.3402 20.7566 27.875C20.7834 25.5981 20.7614 23.3206 20.7762 21.0434C20.7786 20.6817 20.7114 20.5223 20.3078 20.5529C19.8116 20.591 19.3104 20.5622 18.822 20.5622C18.7459 20.4233 18.8446 20.3608 18.902 20.2945C20.2777 18.7091 21.6575 17.127 23.0314 15.5402C23.1888 15.3587 23.2941 15.2484 23.5091 15.4985C24.9086 17.1273 26.3217 18.7445 27.7292 20.3667C27.7587 20.4004 27.7717 20.4479 27.8294 20.5622Z" fill="rgb(211,34,41)" fill-rule="evenodd" />
		<path id="Fill 5" d="M23.2856 32.0981C22.5099 32.0981 21.7342 32.1019 20.9584 32.0969C20.3615 32.093 19.9965 31.7887 19.9956 31.3081C19.9944 30.8286 20.3442 30.527 20.9572 30.5234C22.5087 30.5145 24.0601 30.5145 25.6116 30.5234C26.2249 30.5267 26.5753 30.828 26.5753 31.3069C26.575 31.7988 26.1999 32.0951 25.5643 32.0975C24.8049 32.1004 24.0453 32.0981 23.2856 32.0981Z" fill="rgb(211,34,41)" fill-rule="evenodd" />
	</g>
</svg>
